<svg xmlns="http://www.w3.org/2000/svg" viewBox="0 0 180 180" fill="none">
  <rect width="180" height="180" rx="40" fill="#12151c"/>
  <rect width="180" height="180" rx="40" stroke="#5eb4d4" stroke-opacity="0.2" stroke-width="2"/>
  <path d="M28 130 C56 78, 78 62, 90 62 C102 62, 124 78, 152 130" stroke="#5dd39e" stroke-width="8" stroke-linecap="round" fill="none"/>
  <path d="M28 130 C56 95, 78 84, 90 84 C102 84, 124 95, 152 130" stroke="#5eb4d4" stroke-width="5" stroke-opacity="0.35" stroke-linecap="round" fill="none"/>
  <circle cx="50" cy="107" r="7" fill="#5eb4d4" fill-opacity="0.55"/>
  <circle cx="73" cy="84" r="7" fill="#5eb4d4" fill-opacity="0.75"/>
  <circle cx="96" cy="73" r="7" fill="#5eb4d4"/>
  <circle cx="118" cy="90" r="7" fill="#5eb4d4" fill-opacity="0.7"/>
  <circle cx="135" cy="112" r="7" fill="#5eb4d4" fill-opacity="0.5"/>
  <circle cx="62" cy="124" r="6" fill="#5eb4d4" fill-opacity="0.4"/>
  <circle cx="107" cy="118" r="6" fill="#5eb4d4" fill-opacity="0.45"/>
  <circle cx="85" cy="101" r="6" fill="#5dd39e" fill-opacity="0.9"/>
  <path d="M90 31 L78 68 H90 L82 104 L108 62 H94 Z" fill="#5eb4d4"/>
</svg>
