<svg xmlns="http://www.w3.org/2000/svg" viewBox="0 0 32 32" fill="none">
  <rect width="32" height="32" rx="7" fill="#12151c"/>
  <rect width="32" height="32" rx="7" stroke="#5eb4d4" stroke-opacity="0.2"/>
  <path d="M5 23 C10 14, 14 11, 16 11 C18 11, 22 14, 27 23" stroke="#5dd39e" stroke-width="1.5" stroke-linecap="round" fill="none"/>
  <path d="M5 23 C10 17, 14 15, 16 15 C18 15, 22 17, 27 23" stroke="#5eb4d4" stroke-width="1" stroke-opacity="0.35" stroke-linecap="round" fill="none"/>
  <circle cx="9" cy="19" r="1.3" fill="#5eb4d4" fill-opacity="0.55"/>
  <circle cx="13" cy="15" r="1.3" fill="#5eb4d4" fill-opacity="0.75"/>
  <circle cx="17" cy="13" r="1.3" fill="#5eb4d4"/>
  <circle cx="21" cy="16" r="1.3" fill="#5eb4d4" fill-opacity="0.7"/>
  <circle cx="24" cy="20" r="1.3" fill="#5eb4d4" fill-opacity="0.5"/>
  <circle cx="11" cy="22" r="1.1" fill="#5eb4d4" fill-opacity="0.4"/>
  <circle cx="19" cy="21" r="1.1" fill="#5eb4d4" fill-opacity="0.45"/>
  <circle cx="15" cy="18" r="1.1" fill="#5dd39e" fill-opacity="0.9"/>
  <path d="M16 5.5 L13.5 12 H16 L14.5 18.5 L19 11 H16.5 Z" fill="#5eb4d4"/>
</svg>
